solid CATIA STL
  facet normal -3.695065e-001 -5.926815e-001  7.156770e-001
    outer loop
      vertex  8.151382e-001  2.163012e-001  7.537127e-001
      vertex  1.059058e+000 -5.439568e-001  2.500484e-001
      vertex  9.047436e-001  2.139966e-001  7.980677e-001
    endloop
  endfacet
  facet normal -3.695066e-001 -5.926816e-001  7.156770e-001
    outer loop
      vertex  9.047436e-001  2.139966e-001  7.980677e-001
      vertex  1.059058e+000 -5.439568e-001  2.500484e-001
      vertex  1.148316e+000 -5.451792e-001  2.951204e-001
    endloop
  endfacet
  facet normal -4.437116e-001 -8.841800e-002  8.917972e-001
    outer loop
      vertex  8.825575e-001  1.123456e+000  8.764135e-001
      vertex  7.929744e-001  1.125097e+000  8.320043e-001
      vertex  9.050066e-001  2.157305e-001  7.975857e-001
    endloop
  endfacet
  facet normal -4.374612e-001 -8.776706e-002  8.949439e-001
    outer loop
      vertex  9.050066e-001  2.157305e-001  7.975857e-001
      vertex  7.929744e-001  1.125097e+000  8.320043e-001
      vertex  8.151382e-001  2.163012e-001  7.537127e-001
    endloop
  endfacet
  facet normal -4.167243e-001  3.016281e-001  8.575322e-001
    outer loop
      vertex  9.050066e-001  2.157305e-001  7.975857e-001
      vertex  8.151382e-001  2.163012e-001  7.537127e-001
      vertex  9.047436e-001  2.139966e-001  7.980677e-001
    endloop
  endfacet
  facet normal  8.925831e-001 -1.222175e-002  4.507174e-001
    outer loop
      vertex  1.148316e+000 -5.451792e-001  2.951204e-001
      vertex  1.161293e+000  1.176909e+000  3.161184e-001
      vertex  9.047436e-001  2.139966e-001  7.980677e-001
    endloop
  endfacet
  facet normal  8.888413e-001 -7.502889e-003  4.581536e-001
    outer loop
      vertex  1.161293e+000  1.176909e+000  3.161184e-001
      vertex  9.050066e-001  2.157305e-001  7.975857e-001
      vertex  9.047436e-001  2.139966e-001  7.980677e-001
    endloop
  endfacet
  facet normal  4.508228e-001  7.505302e-003 -8.925819e-001
    outer loop
      vertex  1.161306e+000  1.178123e+000  3.161356e-001
      vertex  1.161293e+000  1.176909e+000  3.161184e-001
      vertex  1.072050e+000  1.179829e+000  2.710688e-001
    endloop
  endfacet
  facet normal  4.508224e-001  7.486454e-003 -8.925823e-001
    outer loop
      vertex  1.072050e+000  1.179829e+000  2.710688e-001
      vertex  1.161293e+000  1.176909e+000  3.161184e-001
      vertex  1.148316e+000 -5.451792e-001  2.951204e-001
    endloop
  endfacet
  facet normal  4.508226e-001  7.486461e-003 -8.925822e-001
    outer loop
      vertex  1.072050e+000  1.179829e+000  2.710688e-001
      vertex  1.148316e+000 -5.451792e-001  2.951204e-001
      vertex  1.059058e+000 -5.439568e-001  2.500484e-001
    endloop
  endfacet
  facet normal -8.925818e-001  1.222384e-002 -4.507199e-001
    outer loop
      vertex  8.151382e-001  2.163012e-001  7.537127e-001
      vertex  1.072050e+000  1.179829e+000  2.710688e-001
      vertex  1.059058e+000 -5.439568e-001  2.500484e-001
    endloop
  endfacet
  facet normal -8.958310e-001  1.641036e-002 -4.440917e-001
    outer loop
      vertex  8.151382e-001  2.163012e-001  7.537127e-001
      vertex  7.929744e-001  1.125097e+000  8.320043e-001
      vertex  1.072050e+000  1.179829e+000  2.710688e-001
    endloop
  endfacet
  facet normal -2.401057e-002  9.960709e-001  8.524207e-002
    outer loop
      vertex  7.929744e-001  1.125097e+000  8.320043e-001
      vertex  8.825575e-001  1.123456e+000  8.764135e-001
      vertex  1.072050e+000  1.179829e+000  2.710688e-001
    endloop
  endfacet
  facet normal -2.401088e-002  9.960709e-001  8.524198e-002
    outer loop
      vertex  1.072050e+000  1.179829e+000  2.710688e-001
      vertex  8.825575e-001  1.123456e+000  8.764135e-001
      vertex  1.161306e+000  1.178123e+000  3.161356e-001
    endloop
  endfacet
  facet normal  8.958310e-001 -1.641037e-002  4.440917e-001
    outer loop
      vertex  8.825575e-001  1.123456e+000  8.764135e-001
      vertex  9.050066e-001  2.157305e-001  7.975857e-001
      vertex  1.161306e+000  1.178123e+000  3.161356e-001
    endloop
  endfacet
  facet normal  8.958064e-001 -1.637841e-002  4.441425e-001
    outer loop
      vertex  9.050066e-001  2.157305e-001  7.975857e-001
      vertex  1.161293e+000  1.176909e+000  3.161184e-001
      vertex  1.161306e+000  1.178123e+000  3.161356e-001
    endloop
  endfacet
  facet normal  1.552759e-002 -9.958705e-001 -8.944723e-002
    outer loop
      vertex  1.072827e+000  1.353340e+000  2.725578e-001
      vertex  1.162439e+000  1.350758e+000  3.168632e-001
      vertex  7.917106e-001  1.298176e+000  8.379304e-001
    endloop
  endfacet
  facet normal  8.796755e-002 -9.954036e-001 -3.786052e-002
    outer loop
      vertex  7.917106e-001  1.298176e+000  8.379304e-001
      vertex  1.162439e+000  1.350758e+000  3.168632e-001
      vertex  8.808408e-001  1.304344e+000  8.828498e-001
    endloop
  endfacet
  facet normal -7.868186e-001 -6.890012e-002 -6.133264e-001
    outer loop
      vertex  7.693716e-001  1.925070e+000  7.961655e-001
      vertex  1.070357e+000  2.506292e+000  3.447471e-001
      vertex  7.805413e-001  1.611623e+000  8.170484e-001
    endloop
  endfacet
  facet normal -8.750524e-001  2.837882e-002 -4.831956e-001
    outer loop
      vertex  7.805413e-001  1.611623e+000  8.170484e-001
      vertex  1.070357e+000  2.506292e+000  3.447471e-001
      vertex  1.071592e+000  1.929816e+000  3.086523e-001
    endloop
  endfacet
  facet normal -8.478360e-001 -6.526884e-002 -5.262263e-001
    outer loop
      vertex  7.805413e-001  1.611623e+000  8.170484e-001
      vertex  1.071592e+000  1.929816e+000  3.086523e-001
      vertex  7.917106e-001  1.298176e+000  8.379304e-001
    endloop
  endfacet
  facet normal -8.961230e-001  2.582104e-002 -4.430539e-001
    outer loop
      vertex  7.917106e-001  1.298176e+000  8.379304e-001
      vertex  1.071592e+000  1.929816e+000  3.086523e-001
      vertex  1.072827e+000  1.353340e+000  2.725578e-001
    endloop
  endfacet
  facet normal  4.437698e-001  6.478785e-002 -8.937958e-001
    outer loop
      vertex  1.162439e+000  1.350758e+000  3.168632e-001
      vertex  1.072827e+000  1.353340e+000  2.725578e-001
      vertex  1.159097e+000  1.926978e+000  3.569719e-001
    endloop
  endfacet
  facet normal  4.840237e-001  5.571489e-002 -8.732794e-001
    outer loop
      vertex  1.159097e+000  1.926978e+000  3.569719e-001
      vertex  1.072827e+000  1.353340e+000  2.725578e-001
      vertex  1.071592e+000  1.929816e+000  3.086523e-001
    endloop
  endfacet
  facet normal  4.839869e-001  6.438575e-002 -8.727034e-001
    outer loop
      vertex  1.159097e+000  1.926978e+000  3.569719e-001
      vertex  1.071592e+000  1.929816e+000  3.086523e-001
      vertex  1.155322e+000  2.503178e+000  3.973888e-001
    endloop
  endfacet
  facet normal  5.273331e-001  5.422119e-002 -8.479268e-001
    outer loop
      vertex  1.155322e+000  2.503178e+000  3.973888e-001
      vertex  1.071592e+000  1.929816e+000  3.086523e-001
      vertex  1.070357e+000  2.506292e+000  3.447471e-001
    endloop
  endfacet
  facet normal  7.892473e-001  6.711657e-002  6.103966e-001
    outer loop
      vertex  8.480536e-001  1.931960e+000  8.574980e-001
      vertex  8.653250e-001  1.618150e+000  8.696712e-001
      vertex  1.155322e+000  2.503178e+000  3.973888e-001
    endloop
  endfacet
  facet normal  8.745527e-001 -2.822738e-002  4.841084e-001
    outer loop
      vertex  1.155322e+000  2.503178e+000  3.973888e-001
      vertex  8.653250e-001  1.618150e+000  8.696712e-001
      vertex  1.159097e+000  1.926978e+000  3.569719e-001
    endloop
  endfacet
  facet normal  8.487604e-001  6.400937e-002  5.248891e-001
    outer loop
      vertex  8.653250e-001  1.618150e+000  8.696712e-001
      vertex  8.808408e-001  1.304344e+000  8.828498e-001
      vertex  1.159097e+000  1.926978e+000  3.569719e-001
    endloop
  endfacet
  facet normal  8.958510e-001 -2.568242e-002  4.436118e-001
    outer loop
      vertex  1.159097e+000  1.926978e+000  3.569719e-001
      vertex  8.808408e-001  1.304344e+000  8.828498e-001
      vertex  1.162439e+000  1.350758e+000  3.168632e-001
    endloop
  endfacet
  facet normal -6.146073e-001 -3.226953e-003  7.888267e-001
    outer loop
      vertex  8.480536e-001  1.931960e+000  8.574980e-001
      vertex  7.693716e-001  1.925070e+000  7.961655e-001
      vertex  8.653250e-001  1.618150e+000  8.696712e-001
    endloop
  endfacet
  facet normal -5.290673e-001  3.762637e-002  8.477453e-001
    outer loop
      vertex  8.653250e-001  1.618150e+000  8.696712e-001
      vertex  7.693716e-001  1.925070e+000  7.961655e-001
      vertex  7.805413e-001  1.611623e+000  8.170484e-001
    endloop
  endfacet
  facet normal -5.278587e-001  9.567016e-003  8.492783e-001
    outer loop
      vertex  8.653250e-001  1.618150e+000  8.696712e-001
      vertex  7.805413e-001  1.611623e+000  8.170484e-001
      vertex  8.808408e-001  1.304344e+000  8.828498e-001
    endloop
  endfacet
  facet normal -4.520154e-001  4.324917e-002  8.909610e-001
    outer loop
      vertex  8.808408e-001  1.304344e+000  8.828498e-001
      vertex  7.805413e-001  1.611623e+000  8.170484e-001
      vertex  7.917106e-001  1.298176e+000  8.379304e-001
    endloop
  endfacet
  facet normal -4.874586e-001  6.788885e-001  5.490851e-001
    outer loop
      vertex  7.693716e-001  1.925070e+000  7.961655e-001
      vertex  8.480536e-001  1.931960e+000  8.574980e-001
      vertex  1.070357e+000  2.506292e+000  3.447471e-001
    endloop
  endfacet
  facet normal -3.601077e-001  6.949945e-001  6.223384e-001
    outer loop
      vertex  1.070357e+000  2.506292e+000  3.447471e-001
      vertex  8.480536e-001  1.931960e+000  8.574980e-001
      vertex  1.155322e+000  2.503178e+000  3.973888e-001
    endloop
  endfacet
  facet normal  9.867593e-001 -1.543173e-001  4.992210e-002
    outer loop
      vertex  8.639063e-001  3.223038e+000  3.670114e-001
      vertex  8.656135e-001  3.263529e+000  4.584313e-001
      vertex  6.862573e-001  2.230390e+000  8.099800e-001
    endloop
  endfacet
  facet normal  9.848704e-001 -1.731727e-001 -6.454017e-003
    outer loop
      vertex  6.862573e-001  2.230390e+000  8.099800e-001
      vertex  8.656135e-001  3.263529e+000  4.584313e-001
      vertex  6.938037e-001  2.269896e+000  9.015352e-001
    endloop
  endfacet
  facet normal -1.848589e-002 -4.387933e-001 -8.983978e-001
    outer loop
      vertex  7.998237e-016  3.259181e+000  3.671348e-001
      vertex  8.639063e-001  3.223038e+000  3.670114e-001
      vertex  1.141062e-016  2.284357e+000  8.432563e-001
    endloop
  endfacet
  facet normal -7.546174e-002 -3.950590e-001 -9.155511e-001
    outer loop
      vertex  1.141062e-016  2.284357e+000  8.432563e-001
      vertex  8.639063e-001  3.223038e+000  3.670114e-001
      vertex  6.862573e-001  2.230390e+000  8.099800e-001
    endloop
  endfacet
  facet normal  3.749038e-002  8.976156e-001 -4.391820e-001
    outer loop
      vertex  7.998237e-016  3.259181e+000  3.671348e-001
      vertex  1.848497e-003  3.303061e+000  4.569746e-001
      vertex  8.639063e-001  3.223038e+000  3.670114e-001
    endloop
  endfacet
  facet normal  4.247800e-002  9.132129e-001 -4.052627e-001
    outer loop
      vertex  8.639063e-001  3.223038e+000  3.670114e-001
      vertex  1.848497e-003  3.303061e+000  4.569746e-001
      vertex  8.656135e-001  3.263529e+000  4.584313e-001
    endloop
  endfacet
  facet normal  1.856005e-002  4.386468e-001  8.984678e-001
    outer loop
      vertex  1.848497e-003  3.303061e+000  4.569746e-001
      vertex  7.784274e-003  2.328110e+000  9.328388e-001
      vertex  8.656135e-001  3.263529e+000  4.584313e-001
    endloop
  endfacet
  facet normal  7.531329e-002  3.952331e-001  9.154882e-001
    outer loop
      vertex  8.656135e-001  3.263529e+000  4.584313e-001
      vertex  7.784274e-003  2.328110e+000  9.328388e-001
      vertex  6.938037e-001  2.269896e+000  9.015352e-001
    endloop
  endfacet
  facet normal -5.261792e-002 -9.153121e-001  3.992934e-001
    outer loop
      vertex  6.862573e-001  2.230390e+000  8.099800e-001
      vertex  6.938037e-001  2.269896e+000  9.015352e-001
      vertex  1.141062e-016  2.284357e+000  8.432563e-001
    endloop
  endfacet
  facet normal -5.579465e-002 -8.952315e-001  4.420946e-001
    outer loop
      vertex  1.141062e-016  2.284357e+000  8.432563e-001
      vertex  6.938037e-001  2.269896e+000  9.015352e-001
      vertex  7.784274e-003  2.328110e+000  9.328388e-001
    endloop
  endfacet
  facet normal -9.969657e-001  3.416272e-002  6.994572e-002
    outer loop
      vertex  1.141062e-016  2.284357e+000  8.432563e-001
      vertex  7.784274e-003  2.328110e+000  9.328388e-001
      vertex  7.998237e-016  3.259181e+000  3.671348e-001
    endloop
  endfacet
  facet normal -9.998142e-001  3.192591e-003  1.901234e-002
    outer loop
      vertex  7.998237e-016  3.259181e+000  3.671348e-001
      vertex  7.784274e-003  2.328110e+000  9.328388e-001
      vertex  1.848497e-003  3.303061e+000  4.569746e-001
    endloop
  endfacet
  facet normal  1.336651e-002  8.572663e-001  5.146998e-001
    outer loop
      vertex -1.670476e-011  7.148536e-002  9.335042e-001
      vertex -3.350773e-016  1.232384e-001  8.473061e-001
      vertex -6.857671e-001  1.161235e-001  8.769655e-001
    endloop
  endfacet
  facet normal  1.409270e-002  8.482941e-001  5.293379e-001
    outer loop
      vertex -6.857671e-001  1.161235e-001  8.769655e-001
      vertex -3.350773e-016  1.232384e-001  8.473061e-001
      vertex -6.753826e-001  1.686521e-001  7.925090e-001
    endloop
  endfacet
  facet normal -1.588308e-002  8.572347e-001  5.146807e-001
    outer loop
      vertex -3.350773e-016  1.232384e-001  8.473061e-001
      vertex -1.670476e-011  7.148536e-002  9.335042e-001
      vertex  6.753826e-001  1.686521e-001  7.925090e-001
    endloop
  endfacet
  facet normal -1.160315e-002  8.484588e-001  5.291342e-001
    outer loop
      vertex  6.753826e-001  1.686521e-001  7.925090e-001
      vertex -1.670476e-011  7.148536e-002  9.335042e-001
      vertex  6.857671e-001  1.161235e-001  8.769655e-001
    endloop
  endfacet
  facet normal -1.238396e-001  5.203612e-001 -8.449189e-001
    outer loop
      vertex  8.976508e-001 -6.933039e-001  2.290773e-001
      vertex  1.898854e-013 -8.099962e-001  2.887783e-001
      vertex  6.753826e-001  1.686521e-001  7.925090e-001
    endloop
  endfacet
  facet normal -1.035899e-001  5.107774e-001 -8.534492e-001
    outer loop
      vertex  6.753826e-001  1.686521e-001  7.925090e-001
      vertex  1.898854e-013 -8.099962e-001  2.887783e-001
      vertex -3.350773e-016  1.232384e-001  8.473061e-001
    endloop
  endfacet
  facet normal  1.238396e-001  5.203612e-001 -8.449189e-001
    outer loop
      vertex -8.976508e-001 -6.933039e-001  2.290773e-001
      vertex -6.753826e-001  1.686521e-001  7.925090e-001
      vertex  1.898854e-013 -8.099962e-001  2.887783e-001
    endloop
  endfacet
  facet normal  1.035898e-001  5.107772e-001 -8.534492e-001
    outer loop
      vertex  1.898854e-013 -8.099962e-001  2.887783e-001
      vertex -6.753826e-001  1.686521e-001  7.925090e-001
      vertex -3.350773e-016  1.232384e-001  8.473061e-001
    endloop
  endfacet
  facet normal -9.715434e-001  2.353281e-001  2.690690e-002
    outer loop
      vertex -6.857671e-001  1.161235e-001  8.769655e-001
      vertex -6.753826e-001  1.686521e-001  7.925090e-001
      vertex -9.100347e-001 -7.453400e-001  3.135692e-001
    endloop
  endfacet
  facet normal -9.696131e-001  2.444973e-001  8.463017e-003
    outer loop
      vertex -9.100347e-001 -7.453400e-001  3.135692e-001
      vertex -6.753826e-001  1.686521e-001  7.925090e-001
      vertex -8.976508e-001 -6.933039e-001  2.290773e-001
    endloop
  endfacet
  facet normal -1.238294e-001 -5.203463e-001  8.449295e-001
    outer loop
      vertex -9.100347e-001 -7.453400e-001  3.135692e-001
      vertex  6.676517e-016 -8.625442e-001  3.747604e-001
      vertex -6.857671e-001  1.161235e-001  8.769655e-001
    endloop
  endfacet
  facet normal -1.036080e-001 -5.106016e-001  8.535522e-001
    outer loop
      vertex -6.857671e-001  1.161235e-001  8.769655e-001
      vertex  6.676517e-016 -8.625442e-001  3.747604e-001
      vertex -1.670476e-011  7.148536e-002  9.335042e-001
    endloop
  endfacet
  facet normal  1.238294e-001 -5.203463e-001  8.449295e-001
    outer loop
      vertex  9.100347e-001 -7.453400e-001  3.135692e-001
      vertex  6.857671e-001  1.161235e-001  8.769655e-001
      vertex  6.676517e-016 -8.625442e-001  3.747604e-001
    endloop
  endfacet
  facet normal  1.036080e-001 -5.106016e-001  8.535522e-001
    outer loop
      vertex  6.676517e-016 -8.625442e-001  3.747604e-001
      vertex  6.857671e-001  1.161235e-001  8.769655e-001
      vertex -1.670476e-011  7.148536e-002  9.335042e-001
    endloop
  endfacet
  facet normal  9.719577e-001  2.337291e-001  2.586145e-002
    outer loop
      vertex  6.753826e-001  1.686521e-001  7.925090e-001
      vertex  6.857671e-001  1.161235e-001  8.769655e-001
      vertex  8.976508e-001 -6.933039e-001  2.290773e-001
    endloop
  endfacet
  facet normal  9.691988e-001  2.460962e-001  9.508505e-003
    outer loop
      vertex  8.976508e-001 -6.933039e-001  2.290773e-001
      vertex  6.857671e-001  1.161235e-001  8.769655e-001
      vertex  9.100347e-001 -7.453400e-001  3.135692e-001
    endloop
  endfacet
  facet normal  7.443967e-002 -8.442024e-001 -5.308305e-001
    outer loop
      vertex  8.976508e-001 -6.933039e-001  2.290773e-001
      vertex  9.100347e-001 -7.453400e-001  3.135692e-001
      vertex  1.898854e-013 -8.099962e-001  2.887783e-001
    endloop
  endfacet
  facet normal  7.462019e-002 -8.508879e-001 -5.200207e-001
    outer loop
      vertex  1.898854e-013 -8.099962e-001  2.887783e-001
      vertex  9.100347e-001 -7.453400e-001  3.135692e-001
      vertex  6.676517e-016 -8.625442e-001  3.747604e-001
    endloop
  endfacet
  facet normal -7.306147e-002 -8.443807e-001 -5.307383e-001
    outer loop
      vertex -9.100347e-001 -7.453400e-001  3.135692e-001
      vertex -8.976508e-001 -6.933039e-001  2.290773e-001
      vertex  6.676517e-016 -8.625442e-001  3.747604e-001
    endloop
  endfacet
  facet normal -7.601965e-002 -8.507977e-001 -5.199656e-001
    outer loop
      vertex  6.676517e-016 -8.625442e-001  3.747604e-001
      vertex -8.976508e-001 -6.933039e-001  2.290773e-001
      vertex  1.898854e-013 -8.099962e-001  2.887783e-001
    endloop
  endfacet
  facet normal  3.695064e-001 -5.926815e-001  7.156770e-001
    outer loop
      vertex -8.151382e-001  2.163012e-001  7.537127e-001
      vertex -9.047436e-001  2.139966e-001  7.980677e-001
      vertex -1.059058e+000 -5.439568e-001  2.500484e-001
    endloop
  endfacet
  facet normal  3.695063e-001 -5.926815e-001  7.156770e-001
    outer loop
      vertex -1.059058e+000 -5.439568e-001  2.500484e-001
      vertex -9.047436e-001  2.139966e-001  7.980677e-001
      vertex -1.148316e+000 -5.451792e-001  2.951204e-001
    endloop
  endfacet
  facet normal  4.167243e-001  3.016281e-001  8.575322e-001
    outer loop
      vertex -9.047436e-001  2.139966e-001  7.980677e-001
      vertex -8.151382e-001  2.163012e-001  7.537127e-001
      vertex -9.050066e-001  2.157305e-001  7.975857e-001
    endloop
  endfacet
  facet normal  4.374612e-001 -8.776706e-002  8.949439e-001
    outer loop
      vertex -9.050066e-001  2.157305e-001  7.975857e-001
      vertex -8.151382e-001  2.163012e-001  7.537127e-001
      vertex -7.929744e-001  1.125097e+000  8.320043e-001
    endloop
  endfacet
  facet normal  4.437116e-001 -8.841800e-002  8.917972e-001
    outer loop
      vertex -9.050066e-001  2.157305e-001  7.975857e-001
      vertex -7.929744e-001  1.125097e+000  8.320043e-001
      vertex -8.825575e-001  1.123456e+000  8.764135e-001
    endloop
  endfacet
  facet normal -8.925831e-001 -1.222175e-002  4.507174e-001
    outer loop
      vertex -9.047436e-001  2.139966e-001  7.980677e-001
      vertex -1.161293e+000  1.176909e+000  3.161184e-001
      vertex -1.148316e+000 -5.451792e-001  2.951204e-001
    endloop
  endfacet
  facet normal -8.888413e-001 -7.502889e-003  4.581536e-001
    outer loop
      vertex -9.047436e-001  2.139966e-001  7.980677e-001
      vertex -9.050066e-001  2.157305e-001  7.975857e-001
      vertex -1.161293e+000  1.176909e+000  3.161184e-001
    endloop
  endfacet
  facet normal -4.508226e-001  7.486461e-003 -8.925822e-001
    outer loop
      vertex -1.059058e+000 -5.439568e-001  2.500484e-001
      vertex -1.148316e+000 -5.451792e-001  2.951204e-001
      vertex -1.072050e+000  1.179829e+000  2.710688e-001
    endloop
  endfacet
  facet normal -4.508224e-001  7.486454e-003 -8.925823e-001
    outer loop
      vertex -1.072050e+000  1.179829e+000  2.710688e-001
      vertex -1.148316e+000 -5.451792e-001  2.951204e-001
      vertex -1.161293e+000  1.176909e+000  3.161184e-001
    endloop
  endfacet
  facet normal -4.508228e-001  7.505302e-003 -8.925819e-001
    outer loop
      vertex -1.072050e+000  1.179829e+000  2.710688e-001
      vertex -1.161293e+000  1.176909e+000  3.161184e-001
      vertex -1.161306e+000  1.178123e+000  3.161356e-001
    endloop
  endfacet
  facet normal  8.925818e-001  1.222384e-002 -4.507199e-001
    outer loop
      vertex -1.059058e+000 -5.439568e-001  2.500484e-001
      vertex -1.072050e+000  1.179829e+000  2.710688e-001
      vertex -8.151382e-001  2.163012e-001  7.537127e-001
    endloop
  endfacet
  facet normal  8.958310e-001  1.641036e-002 -4.440917e-001
    outer loop
      vertex -1.072050e+000  1.179829e+000  2.710688e-001
      vertex -7.929744e-001  1.125097e+000  8.320043e-001
      vertex -8.151382e-001  2.163012e-001  7.537127e-001
    endloop
  endfacet
  facet normal  2.401057e-002  9.960709e-001  8.524207e-002
    outer loop
      vertex -7.929744e-001  1.125097e+000  8.320043e-001
      vertex -1.072050e+000  1.179829e+000  2.710688e-001
      vertex -8.825575e-001  1.123456e+000  8.764135e-001
    endloop
  endfacet
  facet normal  2.401086e-002  9.960709e-001  8.524199e-002
    outer loop
      vertex -8.825575e-001  1.123456e+000  8.764135e-001
      vertex -1.072050e+000  1.179829e+000  2.710688e-001
      vertex -1.161306e+000  1.178123e+000  3.161356e-001
    endloop
  endfacet
  facet normal -8.958310e-001 -1.641037e-002  4.440917e-001
    outer loop
      vertex -1.161306e+000  1.178123e+000  3.161356e-001
      vertex -9.050066e-001  2.157305e-001  7.975857e-001
      vertex -8.825575e-001  1.123456e+000  8.764135e-001
    endloop
  endfacet
  facet normal -8.958064e-001 -1.637841e-002  4.441425e-001
    outer loop
      vertex -1.161306e+000  1.178123e+000  3.161356e-001
      vertex -1.161293e+000  1.176909e+000  3.161184e-001
      vertex -9.050066e-001  2.157305e-001  7.975857e-001
    endloop
  endfacet
  facet normal -1.552764e-002 -9.958705e-001 -8.944720e-002
    outer loop
      vertex -1.072827e+000  1.353340e+000  2.725578e-001
      vertex -7.917106e-001  1.298176e+000  8.379304e-001
      vertex -1.162439e+000  1.350758e+000  3.168632e-001
    endloop
  endfacet
  facet normal -8.796757e-002 -9.954036e-001 -3.786051e-002
    outer loop
      vertex -1.162439e+000  1.350758e+000  3.168632e-001
      vertex -7.917106e-001  1.298176e+000  8.379304e-001
      vertex -8.808408e-001  1.304344e+000  8.828498e-001
    endloop
  endfacet
  facet normal  7.868186e-001 -6.890012e-002 -6.133264e-001
    outer loop
      vertex -7.693716e-001  1.925070e+000  7.961655e-001
      vertex -7.805413e-001  1.611623e+000  8.170484e-001
      vertex -1.070357e+000  2.506292e+000  3.447471e-001
    endloop
  endfacet
  facet normal  8.750524e-001  2.837882e-002 -4.831956e-001
    outer loop
      vertex -1.070357e+000  2.506292e+000  3.447471e-001
      vertex -7.805413e-001  1.611623e+000  8.170484e-001
      vertex -1.071592e+000  1.929816e+000  3.086523e-001
    endloop
  endfacet
  facet normal  8.478360e-001 -6.526884e-002 -5.262263e-001
    outer loop
      vertex -7.805413e-001  1.611623e+000  8.170484e-001
      vertex -7.917106e-001  1.298176e+000  8.379304e-001
      vertex -1.071592e+000  1.929816e+000  3.086523e-001
    endloop
  endfacet
  facet normal  8.961230e-001  2.582102e-002 -4.430539e-001
    outer loop
      vertex -1.071592e+000  1.929816e+000  3.086523e-001
      vertex -7.917106e-001  1.298176e+000  8.379304e-001
      vertex -1.072827e+000  1.353340e+000  2.725578e-001
    endloop
  endfacet
  facet normal -4.437698e-001  6.478785e-002 -8.937958e-001
    outer loop
      vertex -1.162439e+000  1.350758e+000  3.168632e-001
      vertex -1.159097e+000  1.926978e+000  3.569719e-001
      vertex -1.072827e+000  1.353340e+000  2.725578e-001
    endloop
  endfacet
  facet normal -4.840237e-001  5.571489e-002 -8.732794e-001
    outer loop
      vertex -1.072827e+000  1.353340e+000  2.725578e-001
      vertex -1.159097e+000  1.926978e+000  3.569719e-001
      vertex -1.071592e+000  1.929816e+000  3.086523e-001
    endloop
  endfacet
  facet normal -4.839869e-001  6.438575e-002 -8.727034e-001
    outer loop
      vertex -1.159097e+000  1.926978e+000  3.569719e-001
      vertex -1.155322e+000  2.503178e+000  3.973888e-001
      vertex -1.071592e+000  1.929816e+000  3.086523e-001
    endloop
  endfacet
  facet normal -5.273331e-001  5.422119e-002 -8.479268e-001
    outer loop
      vertex -1.071592e+000  1.929816e+000  3.086523e-001
      vertex -1.155322e+000  2.503178e+000  3.973888e-001
      vertex -1.070357e+000  2.506292e+000  3.447471e-001
    endloop
  endfacet
  facet normal -7.892473e-001  6.711657e-002  6.103966e-001
    outer loop
      vertex -8.480536e-001  1.931960e+000  8.574980e-001
      vertex -1.155322e+000  2.503178e+000  3.973888e-001
      vertex -8.653250e-001  1.618150e+000  8.696712e-001
    endloop
  endfacet
  facet normal -8.745527e-001 -2.822738e-002  4.841084e-001
    outer loop
      vertex -8.653250e-001  1.618150e+000  8.696712e-001
      vertex -1.155322e+000  2.503178e+000  3.973888e-001
      vertex -1.159097e+000  1.926978e+000  3.569719e-001
    endloop
  endfacet
  facet normal -8.487604e-001  6.400937e-002  5.248891e-001
    outer loop
      vertex -8.653250e-001  1.618150e+000  8.696712e-001
      vertex -1.159097e+000  1.926978e+000  3.569719e-001
      vertex -8.808408e-001  1.304344e+000  8.828498e-001
    endloop
  endfacet
  facet normal -8.958510e-001 -2.568244e-002  4.436118e-001
    outer loop
      vertex -8.808408e-001  1.304344e+000  8.828498e-001
      vertex -1.159097e+000  1.926978e+000  3.569719e-001
      vertex -1.162439e+000  1.350758e+000  3.168632e-001
    endloop
  endfacet
  facet normal  6.146073e-001 -3.226953e-003  7.888267e-001
    outer loop
      vertex -8.480536e-001  1.931960e+000  8.574980e-001
      vertex -8.653250e-001  1.618150e+000  8.696712e-001
      vertex -7.693716e-001  1.925070e+000  7.961655e-001
    endloop
  endfacet
  facet normal  5.290673e-001  3.762637e-002  8.477453e-001
    outer loop
      vertex -7.693716e-001  1.925070e+000  7.961655e-001
      vertex -8.653250e-001  1.618150e+000  8.696712e-001
      vertex -7.805413e-001  1.611623e+000  8.170484e-001
    endloop
  endfacet
  facet normal  5.278587e-001  9.567016e-003  8.492783e-001
    outer loop
      vertex -8.653250e-001  1.618150e+000  8.696712e-001
      vertex -8.808408e-001  1.304344e+000  8.828498e-001
      vertex -7.805413e-001  1.611623e+000  8.170484e-001
    endloop
  endfacet
  facet normal  4.520154e-001  4.324917e-002  8.909610e-001
    outer loop
      vertex -7.805413e-001  1.611623e+000  8.170484e-001
      vertex -8.808408e-001  1.304344e+000  8.828498e-001
      vertex -7.917106e-001  1.298176e+000  8.379304e-001
    endloop
  endfacet
  facet normal  4.874588e-001  6.788885e-001  5.490850e-001
    outer loop
      vertex -7.693716e-001  1.925070e+000  7.961655e-001
      vertex -1.070357e+000  2.506292e+000  3.447471e-001
      vertex -8.480536e-001  1.931960e+000  8.574980e-001
    endloop
  endfacet
  facet normal  3.601078e-001  6.949944e-001  6.223383e-001
    outer loop
      vertex -8.480536e-001  1.931960e+000  8.574980e-001
      vertex -1.070357e+000  2.506292e+000  3.447471e-001
      vertex -1.155322e+000  2.503178e+000  3.973888e-001
    endloop
  endfacet
  facet normal -9.867593e-001 -1.543173e-001  4.992210e-002
    outer loop
      vertex -8.639063e-001  3.223038e+000  3.670114e-001
      vertex -6.862573e-001  2.230390e+000  8.099800e-001
      vertex -8.656135e-001  3.263529e+000  4.584313e-001
    endloop
  endfacet
  facet normal -9.848704e-001 -1.731727e-001 -6.454017e-003
    outer loop
      vertex -8.656135e-001  3.263529e+000  4.584313e-001
      vertex -6.862573e-001  2.230390e+000  8.099800e-001
      vertex -6.938037e-001  2.269896e+000  9.015352e-001
    endloop
  endfacet
  facet normal  1.848589e-002 -4.387933e-001 -8.983978e-001
    outer loop
      vertex -7.998237e-016  3.259181e+000  3.671348e-001
      vertex -1.141062e-016  2.284357e+000  8.432563e-001
      vertex -8.639063e-001  3.223038e+000  3.670114e-001
    endloop
  endfacet
  facet normal  7.546174e-002 -3.950590e-001 -9.155511e-001
    outer loop
      vertex -8.639063e-001  3.223038e+000  3.670114e-001
      vertex -1.141062e-016  2.284357e+000  8.432563e-001
      vertex -6.862573e-001  2.230390e+000  8.099800e-001
    endloop
  endfacet
  facet normal -3.749038e-002  8.976156e-001 -4.391820e-001
    outer loop
      vertex -7.998237e-016  3.259181e+000  3.671348e-001
      vertex -8.639063e-001  3.223038e+000  3.670114e-001
      vertex -1.848497e-003  3.303061e+000  4.569746e-001
    endloop
  endfacet
  facet normal -4.247800e-002  9.132129e-001 -4.052627e-001
    outer loop
      vertex -1.848497e-003  3.303061e+000  4.569746e-001
      vertex -8.639063e-001  3.223038e+000  3.670114e-001
      vertex -8.656135e-001  3.263529e+000  4.584313e-001
    endloop
  endfacet
  facet normal -1.856005e-002  4.386468e-001  8.984678e-001
    outer loop
      vertex -1.848497e-003  3.303061e+000  4.569746e-001
      vertex -8.656135e-001  3.263529e+000  4.584313e-001
      vertex -7.784274e-003  2.328110e+000  9.328388e-001
    endloop
  endfacet
  facet normal -7.531329e-002  3.952331e-001  9.154882e-001
    outer loop
      vertex -7.784274e-003  2.328110e+000  9.328388e-001
      vertex -8.656135e-001  3.263529e+000  4.584313e-001
      vertex -6.938037e-001  2.269896e+000  9.015352e-001
    endloop
  endfacet
  facet normal  5.261792e-002 -9.153121e-001  3.992934e-001
    outer loop
      vertex -6.862573e-001  2.230390e+000  8.099800e-001
      vertex -1.141062e-016  2.284357e+000  8.432563e-001
      vertex -6.938037e-001  2.269896e+000  9.015352e-001
    endloop
  endfacet
  facet normal  5.579464e-002 -8.952314e-001  4.420946e-001
    outer loop
      vertex -6.938037e-001  2.269896e+000  9.015352e-001
      vertex -1.141062e-016  2.284357e+000  8.432563e-001
      vertex -7.784274e-003  2.328110e+000  9.328388e-001
    endloop
  endfacet
  facet normal  9.969657e-001  3.416272e-002  6.994572e-002
    outer loop
      vertex -1.141062e-016  2.284357e+000  8.432563e-001
      vertex -7.998237e-016  3.259181e+000  3.671348e-001
      vertex -7.784274e-003  2.328110e+000  9.328388e-001
    endloop
  endfacet
  facet normal  9.998142e-001  3.192590e-003  1.901234e-002
    outer loop
      vertex -7.784274e-003  2.328110e+000  9.328388e-001
      vertex -7.998237e-016  3.259181e+000  3.671348e-001
      vertex -1.848497e-003  3.303061e+000  4.569746e-001
    endloop
  endfacet
endsolid CATIA STL
